<?xml version="1.0" encoding="utf-8"?>
<!-- Generator: Adobe Illustrator 25.2.3, SVG Export Plug-In . SVG Version: 6.00 Build 0)  -->
<svg version="1.1" id="Layer_1" xmlns="http://www.w3.org/2000/svg" xmlns:xlink="http://www.w3.org/1999/xlink" x="0px" y="0px"
	 viewBox="0 0 72.78 94.44" style="enable-background:new 0 0 72.78 94.44;" xml:space="preserve">
<style type="text/css">
	.st0{fill:#FFCB80;}
	.st1{fill:#142C41;}
</style>
<path class="st0" d="M13.09,5.2l-6.9,6.9c-1.5,1.5-1.5,3.93,0,5.43L35.46,46.8L6.19,76.06c-1.5,1.5-1.5,3.93,0,5.43l6.9,6.9
	c1.5,1.5,3.93,1.5,5.43,0l31.32-31.32c0.27-0.16,0.52-0.34,0.75-0.57l6.9-6.9c0.77-0.77,1.14-1.79,1.12-2.81
	c0.02-1.01-0.34-2.03-1.12-2.81l-6.9-6.9c-0.23-0.23-0.49-0.41-0.75-0.57L18.52,5.2C17.02,3.7,14.59,3.7,13.09,5.2z"/>
<path class="st1" d="M24.06,7.16l-6.9,6.9c-1.5,1.5-1.5,3.93,0,5.43l29.26,29.26L17.16,78.02c-1.5,1.5-1.5,3.93,0,5.43l6.9,6.9
	c1.5,1.5,3.93,1.5,5.43,0l31.32-31.32c0.27-0.16,0.52-0.34,0.75-0.57l6.9-6.9c0.77-0.77,1.14-1.79,1.12-2.81
	c0.02-1.01-0.34-2.03-1.12-2.81l-6.9-6.9c-0.23-0.23-0.49-0.41-0.75-0.57L29.49,7.16C27.99,5.66,25.56,5.66,24.06,7.16z"/>
</svg>
