<?xml version="1.0" encoding="UTF-8"?>
<svg width="14px" height="14px" viewBox="0 0 14 14" version="1.1" xmlns="http://www.w3.org/2000/svg" xmlns:xlink="http://www.w3.org/1999/xlink">
    <!-- Generator: Sketch 63 (92445) - https://sketch.com -->
    <title>icon/social/linkedin</title>
    <desc>Created with Sketch.</desc>
    <g id="Symbols" stroke="none" stroke-width="1" fill="none" fill-rule="evenodd">
        <g id="component/footer" transform="translate(-897.000000, -79.000000)" fill="#009588">
            <g id="Social">
                <g transform="translate(836.000000, 68.000000)">
                    <g id="Linkedin" transform="translate(50.000000, 0.000000)">
                        <path d="M11.2266769,15.6486486 L14.1303007,15.6486486 L14.1303007,25 L11.2266769,25 L11.2266769,15.6486486 Z M21.5188897,15.4216216 C24.4548959,15.4216216 25,17.3567568 25,19.8756757 L25,25 L22.1017733,25 L22.1017733,20.4540541 C22.1017733,19.3675676 22.0855821,17.972973 20.5959907,17.972973 C19.0848111,17.972973 18.8581342,19.1567568 18.8581342,20.372973 L18.8581342,25 L15.9599075,25 L15.9599075,15.6486486 L18.7340015,15.6486486 L18.7340015,16.9297297 L18.771781,16.9297297 C19.1603701,16.1945946 20.1048574,15.4216216 21.5188897,15.4216216 Z M12.6838859,11 C13.612182,11 14.3677718,11.7567568 14.3677718,12.6864865 C14.3677718,13.6162162 13.612182,14.372973 12.6838859,14.372973 C11.7501928,14.372973 11,13.6162162 11,12.6864865 C11,11.7567568 11.7501928,11 12.6838859,11 Z" id="icon/social/linkedin"></path>
                    </g>
                </g>
            </g>
        </g>
    </g>
</svg>