<?xml version="1.0" encoding="utf-8"?>
<!-- Generator: Adobe Illustrator 25.2.3, SVG Export Plug-In . SVG Version: 6.00 Build 0)  -->
<svg version="1.1" id="Layer_1" xmlns="http://www.w3.org/2000/svg" xmlns:xlink="http://www.w3.org/1999/xlink" x="0px" y="0px"
	 viewBox="0 0 72.78 94.44" style="enable-background:new 0 0 72.78 94.44;" xml:space="preserve">
<style type="text/css">
	.st0{fill:#FFCB80;}
	.st1{fill:#142C41;}
</style>
<path class="st0" d="M61.56,90.35l6.9-6.9c1.5-1.5,1.5-3.93,0-5.43L39.19,48.76l29.26-29.26c1.5-1.5,1.5-3.93,0-5.43l-6.9-6.9
	c-1.5-1.5-3.93-1.5-5.43,0L24.81,38.48c-0.27,0.16-0.52,0.34-0.75,0.57l-6.9,6.9c-0.77,0.77-1.14,1.79-1.12,2.81
	c-0.02,1.01,0.34,2.03,1.12,2.81l6.9,6.9c0.23,0.23,0.49,0.41,0.75,0.57l31.32,31.32C57.62,91.85,60.06,91.85,61.56,90.35z"/>
<path class="st1" d="M50.59,88.39l6.9-6.9c1.5-1.5,1.5-3.93,0-5.43L28.22,46.8l29.26-29.26c1.5-1.5,1.5-3.93,0-5.43l-6.9-6.9
	c-1.5-1.5-3.93-1.5-5.43,0L13.84,36.52c-0.27,0.16-0.52,0.34-0.75,0.57l-6.9,6.9c-0.77,0.77-1.14,1.79-1.12,2.81
	c-0.02,1.01,0.34,2.03,1.12,2.81l6.9,6.9c0.23,0.23,0.49,0.41,0.75,0.57l31.32,31.32C46.65,89.89,49.09,89.89,50.59,88.39z"/>
</svg>
