<?xml version="1.0" encoding="UTF-8"?>
<svg width="16px" height="13px" viewBox="0 0 16 13" version="1.1" xmlns="http://www.w3.org/2000/svg" xmlns:xlink="http://www.w3.org/1999/xlink">
    <!-- Generator: Sketch 63 (92445) - https://sketch.com -->
    <title>icon/social/twitter</title>
    <desc>Created with Sketch.</desc>
    <g id="Symbols" stroke="none" stroke-width="1" fill="none" fill-rule="evenodd">
        <g id="component/footer" transform="translate(-847.000000, -80.000000)" fill="#009588">
            <g id="Social">
                <g transform="translate(836.000000, 68.000000)">
                    <g id="Twitter">
                        <path d="M27,13.5385 C26.4113528,13.8 25.7791948,13.9765 25.1145286,14.055 C25.792198,13.649 26.3128282,13.006 26.5583896,12.24 C25.9237309,12.6155 25.2215554,12.8895 24.4738685,13.036 C23.8747187,12.3985 23.0215054,12 22.0767692,12 C20.263816,12 18.7949487,13.469 18.7949487,15.2815 C18.7949487,15.5385 18.8234559,15.7895 18.8794699,16.0295 C16.1512878,15.8925 13.7326832,14.586 12.1132783,12.6005 C11.8312078,13.0855 11.6691673,13.649 11.6691673,14.2505 C11.6691673,15.3895 12.2488122,16.3935 13.1290323,16.9825 C12.5913978,16.965 12.0852713,16.818 11.6426607,16.572 C11.6421605,16.5855 11.6421605,16.6 11.6421605,16.613 C11.6421605,18.2035 12.7734434,19.53 14.2753188,19.8315 C14.0002501,19.906 13.7101775,19.9465 13.4106027,19.9465 C13.1985496,19.9465 12.9934984,19.926 12.7934484,19.888 C13.2105526,21.191 14.4233558,22.14 15.8592148,22.167 C14.7364341,23.047 13.3210803,23.5725 11.7831958,23.5725 C11.5181295,23.5725 11.2565641,23.557 11,23.5265 C12.4523631,24.4565 14.1777944,25 16.0317579,25 C22.0692673,25 25.3715929,19.9995 25.3715929,15.6625 C25.3715929,15.5205 25.3675919,15.3785 25.3615904,15.2375 C26.0032508,14.775 26.5593898,14.1975 27,13.5385 Z" id="icon/social/twitter"></path>
                    </g>
                </g>
            </g>
        </g>
    </g>
</svg>